<svg xmlns="http://www.w3.org/2000/svg" viewBox="0 0 400 180">
  <path fill="#FFA11D" d="M7 64h60V4C33.863 4 7 30.863 7 64z"/>
  <path fill="#1F1F21" d="M67 117H7v60c33.137 0 60-26.863 60-60z"/>
  <path fill="#2FC6B8" d="M7 73l60 40H7z"/>
  <path fill="#EB1F39" d="M67 108L7 68h60z"/>
  <path fill="#1F1F21" d="M120.068 147c-18.074 0-27.764-7.22-29.068-21.658l14.115-3.213c1.025 8.942 6.056 13.413 15.093 13.413 3.633 0 6.452-.791 8.455-2.375 2.003-1.583 3.004-3.772 3.004-6.567 0-4.564-2.515-7.545-7.546-8.942l-11.04-3.074c-13.137-3.633-19.705-10.713-19.705-21.239 0-6.334 2.445-11.364 7.337-15.09 4.89-3.726 11.576-5.59 20.054-5.59 7.919 0 14.254 1.7 19.006 5.1 4.751 3.4 7.453 8.268 8.105 14.602l-13.835 3.074c-1.025-7.545-5.543-11.318-13.556-11.318-3.447 0-6.172.722-8.175 2.166-2.003 1.444-3.005 3.423-3.005 5.938 0 2.702.815 4.751 2.446 6.148 1.63 1.398 4.076 2.562 7.337 3.493l11.04 3.074c6.15 1.77 10.644 4.239 13.486 7.406 2.842 3.167 4.262 7.359 4.262 12.575 0 6.987-2.445 12.413-7.337 16.278-4.89 3.866-11.715 5.799-20.473 5.799zm46.397-102h16.071v100.044h-16.07V45zm93.353 76.71c0 11.178.792 18.956 2.376 23.334h-16.49c-.746-3.54-1.119-6.148-1.119-7.825 0-2.235.42-5.589 1.258-10.06h-.978c-1.304 6.614-3.657 11.574-7.058 14.88-3.4 3.308-8.268 4.961-14.603 4.961-6.243 0-11.204-1.77-14.884-5.31-3.68-3.54-5.52-8.337-5.52-14.391 0-12.296 8.106-19.609 24.317-21.937l16.63-2.236v-4.331c0-5.03-.932-8.733-2.795-11.109-1.863-2.375-4.845-3.563-8.944-3.563-3.913 0-6.988 1.165-9.224 3.493-2.236 2.33-3.493 5.683-3.773 10.06l-15.233-2.514c.653-7.36 3.4-12.948 8.246-16.767 4.844-3.82 11.599-5.73 20.263-5.73 18.354 0 27.531 8.757 27.531 26.27v22.775zm-30.465 13.693c4.378 0 7.872-1.537 10.48-4.611 2.61-3.074 3.914-7.639 3.914-13.693v-3.214l-12.717 2.236c-7.733 1.304-11.6 4.657-11.6 10.06 0 2.98.885 5.263 2.656 6.846 1.77 1.584 4.192 2.376 7.267 2.376zm93.353-5.45l2.096 12.157c-1.49 1.117-3.913 2.212-7.267 3.283-3.354 1.071-6.661 1.607-9.922 1.607-7.267 0-12.648-1.91-16.141-5.729-3.494-3.819-5.241-10.013-5.241-18.583V85.52h-13.556v-10.9h13.556V57.437l16.071-6.568v23.754h20.264V85.52h-20.264v35.21c0 4.844.699 8.174 2.096 9.99 1.398 1.817 3.727 2.726 6.988 2.726 4.006 0 7.78-1.165 11.32-3.494zM393 104.523c0 2.981-.186 5.962-.559 8.943h-41.925c.373 14.159 5.217 21.238 14.534 21.238 3.633 0 6.405-.908 8.315-2.725 1.91-1.816 3.284-4.82 4.123-9.012l14.673 3.633c-2.701 13.6-11.738 20.4-27.111 20.4-9.876 0-17.492-3.237-22.85-9.711-5.356-6.474-8.035-15.626-8.035-27.456 0-11.737 2.679-20.866 8.036-27.386 5.357-6.521 12.88-9.781 22.57-9.781 8.944 0 15.884 2.794 20.822 8.383 4.938 5.59 7.407 13.414 7.407 23.474zm-42.484-1.118h26.413c0-13.227-4.053-19.84-12.159-19.84-4.472 0-7.942 1.7-10.41 5.1-2.47 3.4-3.75 8.313-3.844 14.74z"/>
</svg>